<svg width="60" height="60" viewBox="0 0 60 60" fill="none" xmlns="http://www.w3.org/2000/svg">
<path d="M44.3371 19.3369L25.0003 38.6746L15.6628 29.3371C15.486 29.1663 15.2491 29.0718 15.0033 29.074C14.7575 29.0761 14.5224 29.1747 14.3486 29.3485C14.1747 29.5223 14.0761 29.7575 14.074 30.0033C14.0719 30.2491 14.1664 30.4859 14.3371 30.6627L24.3375 40.6631C24.4245 40.7502 24.5278 40.8193 24.6415 40.8664C24.7553 40.9135 24.8772 40.9378 25.0003 40.9378C25.1234 40.9378 25.2453 40.9135 25.359 40.8664C25.4727 40.8193 25.5761 40.7502 25.6631 40.6631L45.6628 20.6625C45.7523 20.576 45.8237 20.4726 45.8729 20.3582C45.922 20.2438 45.9479 20.1208 45.9489 19.9963C45.95 19.8718 45.9263 19.7484 45.8792 19.6332C45.832 19.5179 45.7624 19.4133 45.6744 19.3252C45.5864 19.2372 45.4817 19.1676 45.3665 19.1205C45.2513 19.0733 45.1278 19.0496 45.0033 19.0507C44.8788 19.0518 44.7558 19.0776 44.6415 19.1268C44.5271 19.1759 44.4236 19.2473 44.3371 19.3369Z" fill="#546FFF"/>
<path d="M30 1.875C24.4374 1.875 18.9997 3.5245 14.3746 6.61492C9.74947 9.70533 6.14462 14.0979 4.0159 19.237C1.88719 24.3762 1.33022 30.0312 2.41543 35.4869C3.50064 40.9426 6.17928 45.954 10.1126 49.8874C14.046 53.8207 19.0574 56.4994 24.5131 57.5846C29.9688 58.6698 35.6238 58.1128 40.763 55.9841C45.9022 53.8554 50.2947 50.2505 53.3851 45.6254C56.4755 41.0003 58.125 35.5626 58.125 30C58.1166 22.5434 55.1507 15.3946 49.8781 10.1219C44.6054 4.84931 37.4566 1.88344 30 1.875ZM30 56.25C24.8083 56.25 19.7331 54.7105 15.4163 51.8261C11.0995 48.9417 7.73497 44.842 5.74817 40.0454C3.76137 35.2489 3.24154 29.9709 4.2544 24.8789C5.26726 19.7869 7.76733 15.1096 11.4385 11.4384C15.1096 7.76732 19.7869 5.26725 24.8789 4.25439C29.9709 3.24152 35.2489 3.76136 40.0455 5.74816C44.842 7.73496 48.9417 11.0995 51.8261 15.4163C54.7105 19.7331 56.25 24.8082 56.25 30C56.2422 36.9595 53.4741 43.6318 48.553 48.5529C43.6318 53.4741 36.9596 56.2422 30 56.25Z" fill="#546FFF"/>
</svg>
