<svg width="26" height="26" viewBox="0 0 26 26" fill="none" xmlns="http://www.w3.org/2000/svg">
<g opacity="0.6">
<path d="M19.6012 24.5556H6.39894C6.12102 24.549 5.84712 24.4878 5.59289 24.3753C5.33865 24.2629 5.10907 24.1014 4.91725 23.9002C4.72543 23.699 4.57513 23.462 4.47495 23.2027C4.37477 22.9434 4.32666 22.6668 4.33338 22.3889V8.1106H5.77783V22.3889C5.77093 22.4772 5.78155 22.5659 5.80908 22.6501C5.8366 22.7342 5.88048 22.8121 5.93821 22.8792C5.99593 22.9463 6.06635 23.0014 6.14542 23.0412C6.22449 23.081 6.31064 23.1048 6.39894 23.1112H19.6012C19.6895 23.1048 19.7756 23.081 19.8547 23.0412C19.9338 23.0014 20.0042 22.9463 20.0619 22.8792C20.1196 22.8121 20.1635 22.7342 20.191 22.6501C20.2185 22.5659 20.2292 22.4772 20.2223 22.3889V8.1106H21.6667V22.3889C21.6734 22.6668 21.6253 22.9434 21.5251 23.2027C21.425 23.462 21.2747 23.699 21.0828 23.9002C20.891 24.1014 20.6614 24.2629 20.4072 24.3753C20.153 24.4878 19.8791 24.549 19.6012 24.5556Z" fill="black"/>
<path d="M22.23 6.49999H3.61114C3.41959 6.49999 3.23589 6.4239 3.10045 6.28845C2.96501 6.15301 2.88892 5.96931 2.88892 5.77776C2.88892 5.58622 2.96501 5.40252 3.10045 5.26708C3.23589 5.13163 3.41959 5.05554 3.61114 5.05554H22.23C22.4216 5.05554 22.6053 5.13163 22.7407 5.26708C22.8762 5.40252 22.9522 5.58622 22.9522 5.77776C22.9522 5.96931 22.8762 6.15301 22.7407 6.28845C22.6053 6.4239 22.4216 6.49999 22.23 6.49999Z" fill="black"/>
<path d="M15.1667 9.38892H16.6112V20.2222H15.1667V9.38892Z" fill="black"/>
<path d="M9.38892 9.38892H10.8334V20.2222H9.38892V9.38892Z" fill="black"/>
<path d="M16.6111 4.23224H15.2389V2.8889H10.7611V4.23224H9.38892V2.8889C9.38845 2.518 9.53068 2.16114 9.78614 1.89224C10.0416 1.62333 10.3907 1.463 10.7611 1.44446H15.2389C15.6094 1.463 15.9585 1.62333 16.2139 1.89224C16.4694 2.16114 16.6116 2.518 16.6111 2.8889V4.23224Z" fill="black"/>
</g>
</svg>
