<svg width="29" height="29" viewBox="0 0 29 29" fill="none" xmlns="http://www.w3.org/2000/svg">
<path fill-rule="evenodd" clip-rule="evenodd" d="M7 9C7 8.44772 7.21102 8 8 8H26C26.789 8 27 8.44772 27 9C27 9.55228 26.789 10 26 10H8C7.21102 10 7 9.55228 7 9Z" fill="#5932EA"/>
<path fill-rule="evenodd" clip-rule="evenodd" d="M7 21C7 20.4477 7.21102 20 8 20H26C26.789 20 27 20.4477 27 21C27 21.5523 26.789 22 26 22H8C7.21102 22 7 21.5523 7 21Z" fill="#5932EA"/>
<path fill-rule="evenodd" clip-rule="evenodd" d="M7 15C7 14.4477 7.21102 14 8 14H26C26.789 14 27 14.4477 27 15C27 15.5523 26.789 16 26 16H8C7.21102 16 7 15.5523 7 15Z" fill="#5932EA"/>
<path d="M3 21C3 21.5523 2.55228 22 2 22C1.44772 22 1 21.5523 1 21C1 20.4477 1.44772 20 2 20C2.55228 20 3 20.4477 3 21Z" fill="#5932EA"/>
<path d="M3 15C3 15.5523 2.55228 16 2 16C1.44772 16 1 15.5523 1 15C1 14.4477 1.44772 14 2 14C2.55228 14 3 14.4477 3 15Z" fill="#5932EA"/>
<path d="M3 9C3 9.55228 2.55228 10 2 10C1.44772 10 1 9.55228 1 9C1 8.44772 1.44772 8 2 8C2.55228 8 3 8.44772 3 9Z" fill="#5932EA"/>
</svg>
