<svg width="18" height="17" viewBox="0 0 18 17" fill="none" xmlns="http://www.w3.org/2000/svg">
<path d="M5.88556 8.296C5.76748 8.18316 5.61044 8.12019 5.44712 8.12019C5.44698 8.12019 5.43272 8.12036 5.43272 8.12036C5.26445 8.12417 5.1046 8.19468 4.98831 8.31636C4.87547 8.43444 4.8125 8.59148 4.8125 8.75481L4.81266 8.7692C4.81648 8.93747 4.88699 9.09733 5.00867 9.21361L7.33295 11.4348C7.5781 11.669 7.9641 11.6692 8.20945 11.4351L12.8658 6.99298C12.9876 6.8768 13.0584 6.71685 13.0623 6.54859C13.0626 6.53842 13.0626 6.52826 13.0623 6.51809C13.0584 6.36037 12.996 6.20975 12.8871 6.0956C12.7673 5.97007 12.6014 5.89904 12.4279 5.89904L12.41 5.89929C12.2531 5.90372 12.1034 5.96614 11.9898 6.07448L7.77177 10.0985L5.88556 8.296Z" fill="#5932EA"/>
<path fill-rule="evenodd" clip-rule="evenodd" d="M8.9375 0.1875C8.9375 0.1875 10.6155 0.1875 12.149 0.836086C12.149 0.836086 13.6296 1.46234 14.7711 2.60387C14.7711 2.60387 15.9127 3.74539 16.5389 5.22603C16.5389 5.22603 17.1875 6.75947 17.1875 8.4375C17.1875 8.4375 17.1875 10.1155 16.5389 11.649C16.5389 11.649 15.9127 13.1296 14.7711 14.2711C14.7711 14.2711 13.6296 15.4127 12.149 16.0389C12.149 16.0389 10.6155 16.6875 8.9375 16.6875C8.9375 16.6875 7.25947 16.6875 5.72603 16.0389C5.72603 16.0389 4.24539 15.4127 3.10387 14.2711C3.10387 14.2711 1.96234 13.1296 1.33609 11.649C1.33609 11.649 0.6875 10.1155 0.6875 8.4375C0.6875 8.4375 0.6875 6.75946 1.33609 5.22603C1.33609 5.22603 1.96234 3.74539 3.10387 2.60387C3.10387 2.60387 4.24539 1.46234 5.72603 0.836086C5.72603 0.836086 7.25946 0.1875 8.9375 0.1875ZM8.9375 1.45673C8.9375 1.45673 7.51685 1.45673 6.22046 2.00505C6.22046 2.00505 4.96783 2.53487 4.00135 3.50135C4.00135 3.50135 3.03488 4.46783 2.50505 5.72046C2.50505 5.72046 1.95673 7.01684 1.95673 8.4375C1.95673 8.4375 1.95673 9.85815 2.50505 11.1545C2.50505 11.1545 3.03487 12.4072 4.00135 13.3736C4.00135 13.3736 4.96783 14.3401 6.22046 14.8699C6.22046 14.8699 7.51685 15.4183 8.9375 15.4183C8.9375 15.4183 10.3582 15.4183 11.6545 14.8699C11.6545 14.8699 12.9072 14.3401 13.8736 13.3736C13.8736 13.3736 14.8401 12.4072 15.3699 11.1545C15.3699 11.1545 15.9183 9.85815 15.9183 8.4375C15.9183 8.4375 15.9183 7.01685 15.3699 5.72046C15.3699 5.72046 14.8401 4.46783 13.8736 3.50135C13.8736 3.50135 12.9072 2.53487 11.6545 2.00505C11.6545 2.00505 10.3582 1.45673 8.9375 1.45673Z" fill="#5932EA"/>
</svg>
