<svg width="16" height="18" viewBox="0 0 16 18" fill="none" xmlns="http://www.w3.org/2000/svg">
<path d="M14.8462 3.16346H0.884615C0.534127 3.16346 0.25 3.44759 0.25 3.79808C0.25 4.14857 0.534127 4.43269 0.884615 4.43269H14.8462C15.1966 4.43269 15.4808 4.14857 15.4808 3.79808C15.4808 3.44759 15.1966 3.16346 14.8462 3.16346Z" fill="#232360"/>
<path d="M5.32692 7.60577V12.6827C5.32692 13.0332 5.61105 13.3173 5.96154 13.3173C6.31203 13.3173 6.59615 13.0332 6.59615 12.6827V7.60577C6.59615 7.25528 6.31203 6.97115 5.96154 6.97115C5.61105 6.97115 5.32692 7.25528 5.32692 7.60577Z" fill="#232360"/>
<path d="M9.13461 7.60577V12.6827C9.13461 13.0332 9.41874 13.3173 9.76923 13.3173C10.1197 13.3173 10.4038 13.0332 10.4038 12.6827V7.60577C10.4038 7.25528 10.1197 6.97115 9.76923 6.97115C9.41874 6.97115 9.13461 7.25528 9.13461 7.60577Z" fill="#232360"/>
<path d="M2.78846 15.8558V3.79808C2.78846 3.44759 2.50433 3.16346 2.15385 3.16346C1.80336 3.16346 1.51923 3.44759 1.51923 3.79808V15.8558C1.51923 16.3815 1.89098 16.7533 1.89098 16.7533C2.26273 17.125 2.78846 17.125 2.78846 17.125H12.9423C13.468 17.125 13.8398 16.7533 13.8398 16.7533C14.2115 16.3815 14.2115 15.8558 14.2115 15.8558V3.79808C14.2115 3.44759 13.9274 3.16346 13.5769 3.16346C13.2264 3.16346 12.9423 3.44759 12.9423 3.79808V15.8558H2.78846Z" fill="#232360"/>
<path d="M4.61532 1.18262C4.05769 1.74025 4.05769 2.52885 4.05769 2.52885V3.79808C4.05769 4.14857 4.34182 4.43269 4.69231 4.43269C5.0428 4.43269 5.32692 4.14857 5.32692 3.79808V2.52885C5.32692 2.26598 5.5128 2.08011 5.5128 2.08011C5.69867 1.89423 5.96154 1.89423 5.96154 1.89423H9.76923C10.0321 1.89423 10.218 2.08011 10.218 2.08011C10.4038 2.26598 10.4038 2.52885 10.4038 2.52885V3.79808C10.4038 4.14857 10.688 4.43269 11.0385 4.43269C11.3889 4.43269 11.6731 4.14857 11.6731 3.79808V2.52885C11.6731 1.74025 11.1155 1.18262 11.1155 1.18262C10.5578 0.625 9.76923 0.625 9.76923 0.625H5.96154C5.17294 0.625 4.61532 1.18262 4.61532 1.18262Z" fill="#232360"/>
</svg>
