<svg width="14" height="8" viewBox="0 0 14 8" fill="none" xmlns="http://www.w3.org/2000/svg">
<path d="M7.42005 7.52442L13.07 1.86442C13.1638 1.77146 13.2382 1.66085 13.2889 1.53899C13.3397 1.41714 13.3658 1.28643 13.3658 1.15442C13.3658 1.02241 13.3397 0.8917 13.2889 0.769841C13.2382 0.647982 13.1638 0.537381 13.07 0.444418C12.8827 0.258167 12.6292 0.153625 12.365 0.153625C12.1009 0.153625 11.8474 0.258167 11.66 0.444418L6.66005 5.39442L1.71005 0.444417C1.52268 0.258166 1.26923 0.153625 1.00505 0.153625C0.740861 0.153625 0.48741 0.258166 0.300047 0.444417C0.205559 0.537032 0.130388 0.647477 0.0788917 0.769352C0.0273952 0.891228 0.000596962 1.02211 4.764e-05 1.15442C0.000596951 1.28672 0.0273952 1.41761 0.0788917 1.53948C0.130388 1.66136 0.205559 1.7718 0.300047 1.86442L5.95005 7.52442C6.04369 7.62592 6.15734 7.70693 6.28384 7.76234C6.41034 7.81775 6.54694 7.84635 6.68505 7.84635C6.82315 7.84635 6.95975 7.81775 7.08625 7.76234C7.21275 7.70693 7.3264 7.62592 7.42005 7.52442Z" fill="#E1E4ED"/>
</svg>
